<svg width="40" height="50" viewBox="0 0 40 50" fill="none" xmlns="http://www.w3.org/2000/svg">
<path d="M35.7245 10.5286C34.9153 10.8925 34.0178 11.0949 33.0731 11.0949C29.4987 11.0949 26.601 8.19727 26.601 4.62285C26.601 4.22889 26.6362 3.84315 26.7037 3.46861C23.9606 2.38895 20.8816 1.84912 17.4667 1.84912H1.85983C0.838569 1.84912 0.0106732 2.67702 0.0106732 3.69828V11.4764C0.0106732 11.5693 0.0175143 11.6605 0.0307198 11.7497L0.0502236 18.4969C0.0531697 19.5161 0.880198 20.3407 1.89937 20.3407H11.1924C12.2137 20.3407 13.0416 19.5132 13.0416 18.4919V15.0897C13.0416 14.2385 13.6179 13.5209 14.4082 13.3256H14.9233C14.9247 13.3256 14.9261 13.3261 14.927 13.3271L14.9285 13.3281L14.9308 13.3287H16.2832C19.2419 13.3287 21.5891 14.1374 23.3248 15.7548C25.0606 17.3722 25.9284 19.6799 25.9284 22.678C25.9284 25.6761 25.0606 27.9838 23.3248 29.6012C21.5891 31.2186 19.2419 32.0273 16.2832 32.0273H14.9962C14.9741 32.0273 14.9521 32.0269 14.9302 32.0262L14.9287 32.0266L14.9277 32.0274L14.927 32.0293L14.9267 32.0306L14.924 32.0324H1.85983C0.838569 32.0324 0.0106732 32.8602 0.0106732 33.8815V40.6814C0.0106732 40.7148 0.00898258 40.7745 0.00694634 40.8463C0.00381908 40.9566 -0.000121737 41.0958 2.88285e-06 41.2127C6.86799e-05 41.2734 0.00149894 41.3344 0.00293002 41.3954C0.00482989 41.4763 0.00673237 41.5573 0.00545325 41.6379C0.00313955 41.7836 0.00741895 41.7892 0.0115197 41.7946C0.0170312 41.8018 0.0222252 41.8086 0.0106732 42.1544L0.0302268 42.4751C0.0302268 42.6162 0.0305983 42.7074 0.0312167 42.7609L0.0302268 42.8191C0.00860402 44.0983 0.404677 44.3797 1.63745 44.3578L9.03389 44.3797C10.2514 44.3852 11.5804 44.3888 12.7322 44.3797L14.5814 44.3578C14.8087 44.3578 15.3121 44.5691 15.5059 44.6879L22.6628 48.8357C23.463 49.3261 24.4959 48.7781 24.5385 47.8406L24.7255 43.7281C24.7422 43.3601 24.9226 43.0189 25.2173 42.7979L25.6355 42.4842C26.7956 42.0895 27.8992 41.602 28.9463 41.0216C32.2599 39.1675 34.8044 36.6428 36.5796 33.4475C38.3548 30.2521 39.2424 26.6623 39.2424 22.678C39.2424 18.6542 38.3548 15.0644 36.5796 11.9085C36.312 11.4329 36.027 10.9729 35.7245 10.5286Z" fill="#3082FC"/>
<circle cx="33.0726" cy="4.62289" r="4.62289" fill="#FCC530"/>
</svg>
