<svg width="112" height="50" viewBox="0 0 112 50" fill="none" xmlns="http://www.w3.org/2000/svg">
<path d="M41.5757 16.026V21.2305H47.8782V16.026H41.5757Z" fill="#F8F8F8"/>
<path d="M41.5757 22.6585V39.7477H47.8782V22.6585H41.5757Z" fill="#F8F8F8"/>
<path d="M50.2113 36.1141L58.1827 26.8793H50.7136V22.6585H64.7445V26.2922L56.8217 35.527H65.0523V39.7477H50.2113V36.1141Z" fill="#F8F8F8"/>
<path fill-rule="evenodd" clip-rule="evenodd" d="M76.0697 30.3701C74.6655 31.4596 73.9634 32.8612 73.9634 34.5749C73.9634 36.1511 74.5413 37.4628 75.697 38.51C76.8636 39.5467 78.3217 40.065 80.0715 40.065C82.437 40.065 84.4137 39.0707 86.0015 37.082L86.1473 37.7008C86.4713 39.2769 87.7081 40.065 89.8575 40.065C90.6568 40.065 91.5425 39.9592 92.5147 39.7477V34.5432C92.061 34.5115 91.7478 34.3792 91.5749 34.1465C91.4021 33.9138 91.3157 33.5065 91.3157 32.9247V29.6084C91.3157 27.2283 90.565 25.4195 89.0636 24.1818C87.5623 22.9442 85.4128 22.3253 82.6153 22.3253C79.6773 22.3253 77.058 23.0499 74.7573 24.4992L76.5881 28.3391C77.571 27.7044 78.4838 27.2389 79.3263 26.9427C80.1688 26.636 81.0599 26.4826 81.9996 26.4826C83.0473 26.4826 83.8088 26.6783 84.2841 27.0697C84.7701 27.4611 85.0131 28.0587 85.0131 28.8627V29.3863C84.1058 28.9526 82.9339 28.7357 81.4973 28.7357C79.2939 28.7357 77.4846 29.2805 76.0697 30.3701ZM85.0131 33.7974C85.0131 34.2523 84.7377 34.6543 84.1868 35.0033C83.528 35.437 82.7827 35.6539 81.951 35.6539C81.3569 35.6539 80.8654 35.5005 80.4766 35.1937C80.0986 34.887 79.9095 34.5009 79.9095 34.0354C79.9095 33.4748 80.1634 33.0093 80.671 32.6391C81.1895 32.2689 81.8268 32.0837 82.5829 32.0837C83.3497 32.0837 84.1598 32.2318 85.0131 32.528V33.7974Z" fill="#F8F8F8"/>
<path d="M99.9352 21.6748L95.9495 20.6434L97.6021 16.026H103.208L99.9352 21.6748Z" fill="#F8F8F8"/>
<path d="M94.7829 39.7477V22.6585H101.085V39.7477H94.7829Z" fill="#F8F8F8"/>
<path d="M105.541 16.4544V30.0051H111.844V16.4544H105.541Z" fill="#F8F8F8"/>
<path d="M105.541 33.7657V39.7477H111.844V33.7657H105.541Z" fill="#F8F8F8"/>
<path d="M35.7245 10.5286C34.9153 10.8925 34.0178 11.0949 33.0731 11.0949C29.4987 11.0949 26.601 8.19727 26.601 4.62285C26.601 4.22889 26.6362 3.84315 26.7037 3.46861C23.9606 2.38895 20.8816 1.84912 17.4667 1.84912H1.85983C0.838569 1.84912 0.0106732 2.67702 0.0106732 3.69828V11.4764C0.0106732 11.5693 0.0175143 11.6605 0.0307198 11.7497L0.0502236 18.4969C0.0531697 19.5161 0.880198 20.3407 1.89937 20.3407H11.1924C12.2137 20.3407 13.0416 19.5132 13.0416 18.4919V15.0897C13.0416 14.2385 13.6179 13.5209 14.4082 13.3256H14.9233C14.9247 13.3256 14.9261 13.3261 14.927 13.3271L14.9285 13.3281L14.9308 13.3287H16.2832C19.2419 13.3287 21.5891 14.1374 23.3248 15.7548C25.0606 17.3722 25.9284 19.6799 25.9284 22.678C25.9284 25.6761 25.0606 27.9838 23.3248 29.6012C21.5891 31.2186 19.2419 32.0273 16.2832 32.0273H14.9962C14.9741 32.0273 14.9521 32.0269 14.9302 32.0262L14.9287 32.0266L14.9277 32.0274L14.927 32.0293L14.9267 32.0306L14.924 32.0324H1.85983C0.838569 32.0324 0.0106732 32.8602 0.0106732 33.8815V40.6814C0.0106732 40.7148 0.00898258 40.7745 0.00694634 40.8463C0.00381908 40.9566 -0.000121737 41.0958 2.88285e-06 41.2127C6.86799e-05 41.2734 0.00149894 41.3344 0.00293002 41.3954C0.00482989 41.4763 0.00673237 41.5573 0.00545325 41.6379C0.00313955 41.7836 0.00741895 41.7892 0.0115197 41.7946C0.0170312 41.8018 0.0222252 41.8086 0.0106732 42.1544L0.0302268 42.4751C0.0302268 42.6162 0.0305983 42.7074 0.0312167 42.7609L0.0302268 42.8191C0.00860402 44.0983 0.404677 44.3797 1.63745 44.3578L9.03389 44.3797C10.2514 44.3852 11.5804 44.3888 12.7322 44.3797L14.5814 44.3578C14.8087 44.3578 15.3121 44.5691 15.5059 44.6879L22.6628 48.8357C23.463 49.3261 24.4959 48.7781 24.5385 47.8406L24.7255 43.7281C24.7422 43.3601 24.9226 43.0189 25.2173 42.7979L25.6355 42.4842C26.7956 42.0895 27.8992 41.602 28.9463 41.0216C32.2599 39.1675 34.8044 36.6428 36.5796 33.4475C38.3548 30.2521 39.2424 26.6623 39.2424 22.678C39.2424 18.6542 38.3548 15.0644 36.5796 11.9085C36.312 11.4329 36.027 10.9729 35.7245 10.5286Z" fill="#3082FC"/>
<circle cx="33.0726" cy="4.62289" r="4.62289" fill="#FCC530"/>
</svg>
