<svg width="135" height="90" viewBox="0 0 135 90" fill="none" xmlns="http://www.w3.org/2000/svg">
<path fill-rule="evenodd" clip-rule="evenodd" d="M35.8798 10.0319C28.7758 10.0319 22.5678 11.4719 17.2558 14.3519C11.8798 17.2319 7.75176 21.2319 4.87176 26.3519C1.99176 31.4719 0.551758 37.2959 0.551758 43.8239C0.551758 50.2879 1.99176 56.1119 4.87176 61.2959C7.75176 66.4799 11.8798 70.5759 17.2558 73.5839C19.1409 74.6286 21.1389 75.488 23.2498 76.162C23.4696 76.2701 23.7191 76.3824 23.9999 76.5L28.4999 78.1111L60.4887 89.5639C62.4428 90.2635 64.4984 88.8137 64.4633 86.7384C64.4171 84.0046 64.3335 81.5023 64.2499 78.9999C64.2122 77.8726 64.1746 76.7454 64.1404 75.5969C64.1793 75.404 64.1998 75.2043 64.1998 74.9999V52C64.1998 50.3431 62.8566 49 61.1998 49H45.8878C44.2309 49 42.8878 50.3431 42.8878 52V55.9919C42.8878 57.6487 41.5446 58.9919 39.8878 58.9919H37.7998C32.9998 58.9919 29.1918 57.6799 26.3758 55.0559C23.5598 52.4319 22.1518 48.6879 22.1518 43.8239C22.1518 38.9599 23.5598 35.2159 26.3758 32.5919C29.1918 29.9679 32.9998 28.6559 37.7998 28.6559H39.9975C39.9989 28.6559 40 28.6547 40 28.6533C40 28.6519 40.0011 28.6508 40.0025 28.6508H61.1998C62.8566 28.6508 64.1998 27.3077 64.1998 25.6508V13.0319C64.1998 11.375 62.8566 10.0319 61.1998 10.0319H35.8798Z" fill="#014898"/>
<path d="M122.5 18C124.763 18 126.86 17.2837 128.574 16.0655C129.086 15.7017 129.82 15.8045 130.128 16.352V16.352C133.008 21.472 134.448 27.296 134.448 33.824C134.448 40.288 133.008 46.112 130.128 51.296C127.248 56.48 123.12 60.576 117.744 63.584C112.432 66.528 106.224 68 99.1198 68H73.7998C72.143 68 70.7998 66.6568 70.7998 65V52C70.7998 50.3431 72.143 49 73.7998 49H95.9958C95.998 49 95.9998 48.9982 95.9998 48.996V48.996C95.9998 48.9938 96.0016 48.992 96.0038 48.992H97.1998C102 48.992 105.808 47.68 108.624 45.056C111.44 42.432 112.848 38.688 112.848 33.824C112.848 28.96 111.44 25.216 108.624 22.592C105.808 19.968 102 18.656 97.1998 18.656H95.1118C93.455 18.656 92.1118 19.9991 92.1118 21.656V26C92.1118 27.6568 90.7687 29 89.1118 29H73.7998C72.143 29 70.7998 27.6568 70.7998 26V3.03198C70.7998 1.37513 72.143 0.0319824 73.7998 0.0319824H99.1198C103.005 0.0319824 106.622 0.462713 109.972 1.32418C111.762 1.78461 112.478 3.85171 112.158 5.67226C112.054 6.26583 112 6.87656 112 7.49998C112 13.299 116.701 18 122.5 18Z" fill="#014898"/>
<circle cx="122.5" cy="7.5" r="7.5" fill="#FCC530"/>
</svg>
