<svg width="135" height="91" viewBox="0 0 135 91" fill="none" xmlns="http://www.w3.org/2000/svg">
<path fill-rule="evenodd" clip-rule="evenodd" d="M17.2558 14.3519C22.5678 11.4719 28.7758 10.0319 35.8798 10.0319H64.1998V29H42.8878V28.6559H37.7998C32.9998 28.6559 29.1918 29.9679 26.3758 32.5919C23.5598 35.2159 22.1518 38.9599 22.1518 43.8239C22.1518 48.6879 23.5598 52.4319 26.3758 55.0559C29.1918 57.6799 32.9998 58.9919 37.7998 58.9919H42.8878V49H64.1998V77.9999H35.8798C28.7758 77.9999 22.5678 76.5279 17.2558 73.5839C11.8798 70.5759 7.75176 66.4799 4.87176 61.2959C1.99176 56.1119 0.551758 50.2879 0.551758 43.8239C0.551758 37.2959 1.99176 31.4719 4.87176 26.3519C7.75176 21.2319 11.8798 17.2319 17.2558 14.3519Z" fill="#014898"/>
<path d="M64.5 91L27.5 77.5L33 67.5641L64 67C64 76.0321 64.5 81.9679 64.5 91Z" fill="#014898"/>
<path fill-rule="evenodd" clip-rule="evenodd" d="M122.5 18C125.197 18 127.656 16.9831 129.516 15.3118C129.726 15.6532 129.93 15.9999 130.128 16.352C133.008 21.472 134.448 27.296 134.448 33.824C134.448 40.288 133.008 46.112 130.128 51.296C127.248 56.48 123.12 60.576 117.744 63.584C112.432 66.528 106.224 68 99.1198 68H70.7998V49H95.9998V48.992H97.1998C102 48.992 105.808 47.68 108.624 45.056C111.44 42.432 112.848 38.688 112.848 33.824C112.848 28.96 111.44 25.216 108.624 22.592C105.808 19.968 102 18.656 97.1998 18.656H92.1118V29H70.7998V0.0319824H99.1198C104.343 0.0319824 109.083 0.810566 113.337 2.36773C112.486 3.88524 112 5.63588 112 7.49998C112 13.299 116.701 18 122.5 18Z" fill="#014898"/>
<circle cx="122.5" cy="7.5" r="7.5" fill="#FCC530"/>
</svg>
