<svg width="123" height="123" viewBox="0 0 123 123" fill="none" xmlns="http://www.w3.org/2000/svg">
<path fill-rule="evenodd" clip-rule="evenodd" d="M25.8034 60.8082C31.6367 60.8082 35.0388 57.2643 35.0388 52.49L35.0457 52.497V52.4478C35.0457 47.6734 31.6849 44.2702 25.8998 44.2702H19.6465V60.8082H25.8034ZM37.4424 60.8082H41.9602V44.2702H37.4424V60.8082ZM53.1859 61.1387C56.1267 61.1387 58.5095 60.0277 60.2244 58.5863V58.5792V51.1329H52.7727V54.4869H55.9682V56.4979C55.2933 56.9479 54.46 57.187 53.3719 57.187C50.803 57.187 48.9711 55.2744 48.9711 52.6025V52.5533C48.9711 50.029 50.7755 48.018 53.1171 48.018C54.7148 48.018 55.8718 48.5875 57.0288 49.579L59.6665 46.3374C57.9517 44.8257 55.9338 43.9257 53.0895 43.9257C48.0689 43.9257 44.3637 47.7086 44.3637 52.5322V52.5814C44.3637 57.5948 48.1378 61.1387 53.1859 61.1387ZM62.7243 60.8082H75.8715L75.8784 60.8152V56.9128H67.1733V54.29H74.9487V50.6759H67.1733V48.1727H75.7613V44.2702H62.7243V60.8082ZM84.5284 61.0895C88.4609 61.0895 91.0779 59.0855 91.0779 55.7034V55.6541C91.0779 52.5533 88.7639 51.3298 85.0381 50.5001C82.7929 49.9797 82.2351 49.6493 82.2351 48.8899V48.8406C82.2351 48.25 82.7654 47.7789 83.8535 47.7789C85.2929 47.7789 86.9113 48.3484 88.392 49.4102L90.6371 46.1687C88.881 44.7272 86.7254 43.9678 83.9706 43.9678C80.0795 43.9678 77.6966 46.1898 77.6966 49.2625V49.3118C77.6966 52.715 80.3549 53.7135 83.8053 54.515C86.0091 55.0354 86.5394 55.4151 86.5394 56.0971V56.1463C86.5394 56.8495 85.892 57.2784 84.6868 57.2784C82.8136 57.2784 81.0299 56.5963 79.4321 55.2955L76.9321 58.3472C78.9293 60.1683 81.6566 61.0895 84.5284 61.0895ZM101.236 48.2781H106.098V44.2632H91.8837V48.2781H96.7459V60.8082H101.236V48.2781Z" fill="#014898"/>
<path d="M119.549 30.5799C116.787 25.5243 112.4 23 106.381 23H17.6288C11.6165 23 7.22949 25.5243 4.46094 30.5799C3.57252 32.2112 2.78741 33.9691 2.29155 35.6637C0.425184 42.0271 1.0519 61.3777 1.32049 63.7614C1.81635 68.2193 2.77364 71.7983 4.19923 74.4984C6.87137 79.554 11.3479 82.0783 17.6288 82.0783H67.5316V101L85.6856 82.0783H106.374C112.655 82.0783 117.131 79.547 119.804 74.4984C121.229 71.7983 122.186 68.2193 122.682 63.7614C122.944 61.3777 123.578 42.0342 121.711 35.6637C121.215 33.962 120.43 32.2112 119.542 30.5799H119.549ZM35.039 52.4899C35.039 57.2643 31.6368 60.8082 25.8036 60.8082H19.6467V44.2702H25.9C31.685 44.2702 35.0459 47.6734 35.0459 52.4478V52.497L35.039 52.4899ZM41.9604 60.8082H37.4425V44.2702H41.9604V60.8152V60.8082ZM60.2246 58.5862C58.5097 60.0277 56.1268 61.1386 53.1861 61.1386C48.138 61.1386 44.3639 57.5948 44.3639 52.5814V52.5321C44.3639 47.7086 48.0691 43.9256 53.0897 43.9256C55.934 43.9256 57.9519 44.8257 59.6667 46.3374L57.029 49.5789C55.872 48.5875 54.715 48.0179 53.1172 48.0179C50.7757 48.0179 48.9713 50.0289 48.9713 52.5532V52.6024C48.9713 55.2744 50.8032 57.187 53.372 57.187C54.4602 57.187 55.2935 56.9479 55.9684 56.4979V54.4869H52.7729V51.1329H60.2246V58.5792V58.5862ZM75.8717 60.8082H62.7245V44.2702H75.7615V48.1726H67.1735V50.6758H74.9488V54.29H67.1735V56.9127H75.8786V60.8152L75.8717 60.8082ZM91.0781 55.7033C91.0781 59.0855 88.461 61.0894 84.5286 61.0894C81.6567 61.0894 78.9295 60.1683 76.9323 58.3472L79.4323 55.2955C81.03 56.5963 82.8137 57.2784 84.687 57.2784C85.8922 57.2784 86.5396 56.8495 86.5396 56.1463V56.0971C86.5396 55.415 86.0093 55.0353 83.8055 54.515C80.3551 53.7134 77.6967 52.715 77.6967 49.3117V49.2625C77.6967 46.1898 80.0796 43.9678 83.9708 43.9678C86.7255 43.9678 88.8811 44.7272 90.6373 46.1687L88.3922 49.4102C86.9115 48.3484 85.2931 47.7789 83.8537 47.7789C82.7655 47.7789 82.2352 48.25 82.2352 48.8406V48.8898C82.2352 49.6492 82.7931 49.9797 85.0382 50.5C88.7641 51.3298 91.0781 52.5532 91.0781 55.6541V55.7033V55.7033ZM106.099 48.2781H101.236V60.8082H96.746V48.2781H91.8839V44.2631H106.099V48.2781Z" fill="#3C89FC"/>
</svg>
