<svg width="220" height="34" viewBox="0 0 220 34" fill="none" xmlns="http://www.w3.org/2000/svg">
<path d="M169.572 0.528076H163.973V6.15552H169.572V0.528076Z" fill="white"/>
<path d="M169.572 8.22839H163.973V25.8832H169.572V8.22839Z" fill="white"/>
<path d="M216.763 1.55094C214.917 0.515974 212.25 0 208.77 0C205.29 0 201.717 0.476748 199.949 1.43326C197.79 2.60401 196.712 4.56532 196.712 7.31718V8.00816H202.312V7.90859C202.312 7.14821 202.729 6.59602 203.567 6.25506C204.402 5.91409 206.711 5.7421 208.77 5.7421C210.83 5.7421 212.259 5.92314 213.115 6.28523C213.971 6.64732 214.397 7.18743 214.397 7.90859V9.83369C213.148 9.46255 211.518 9.27245 208.767 9.33884C204.606 9.43841 201.042 10.0811 199.273 11.0376C197.115 12.2084 196.037 14.1697 196.037 16.9215V19.1363C196.052 21.7464 197.127 23.6534 199.27 24.8543C201.117 25.8892 205.315 26.4052 208.794 26.4052C208.915 26.4052 209.02 26.3992 209.137 26.3962L214.394 23.7107V25.8772H219.994V19.5406H219.97C219.976 19.3898 219.994 19.2419 219.994 19.085V7.3202C219.994 4.68601 218.916 2.76393 216.757 1.55094H216.763ZM214.4 18.4966C214.4 19.257 213.983 19.8092 213.145 20.1502C212.31 20.4911 210.86 20.6631 208.8 20.6631C206.741 20.6631 203.78 20.4821 202.924 20.12C202.069 19.7579 201.642 19.2178 201.642 18.4966V17.513C201.642 16.7526 202.06 16.2004 202.897 15.8594C203.732 15.5185 206.522 15.1956 208.776 15.084C210.815 14.9814 212.265 15.265 213.121 15.6241C213.977 15.9862 214.403 16.5263 214.403 17.2474V18.4936L214.4 18.4966Z" fill="white"/>
<path d="M157.886 1.63236C156.04 0.597395 153.373 0.0814209 149.893 0.0814209C149.482 0.0814209 149.098 0.0934905 148.71 0.108577L144.291 2.77595V0.609465H138.691V6.94599H138.715C138.709 7.09686 138.691 7.24472 138.691 7.40162V25.8832H144.291V7.99001C144.291 7.22963 144.708 6.67745 145.546 6.33648C146.38 5.99551 147.831 5.82352 149.89 5.82352C151.95 5.82352 153.379 6.00457 154.235 6.36364C155.091 6.72572 155.517 7.26584 155.517 7.98699V25.8771H161.117V7.40162C161.117 4.76743 160.039 2.84535 157.88 1.63236H157.886Z" fill="white"/>
<path d="M130.44 18.4996C130.44 19.26 130.023 19.8122 129.185 20.1532C128.35 20.4941 126.9 20.6661 124.84 20.6661C122.781 20.6661 121.351 20.4851 120.496 20.123C119.64 19.7609 119.214 19.2208 119.214 18.4996V0.609497H113.614V19.091C113.614 21.7252 114.692 23.6473 116.851 24.8603C118.697 25.8953 121.363 26.4112 124.843 26.4112C125.252 26.4112 125.639 26.3992 126.023 26.3841L130.443 23.7167V25.8832H136.043V19.5467H136.019C136.025 19.3958 136.043 19.2479 136.043 19.091V0.609497H130.443V18.4996H130.44Z" fill="white"/>
<path d="M174.301 3.78083C173.914 4.48086 173.572 5.23521 173.356 5.9624C172.542 8.69616 172.815 16.997 172.932 18.0199C173.148 19.9329 173.566 21.4688 174.187 22.6275C175.352 24.797 177.304 25.8802 180.042 25.8802H194.013V20.2528H180.631C179.874 20.2528 179.325 19.8334 178.985 18.9915C178.874 18.7199 178.532 17.5703 178.532 13.5511C178.532 8.99187 178.835 7.87241 179.015 7.44394C179.376 6.58399 179.913 6.15552 180.631 6.15552H194.013V0.528076H180.042C177.421 0.528076 175.508 1.61132 174.301 3.78083Z" fill="white"/>
<path d="M33.5326 11.3967H32.7339V15.0085H33.5326C34.7036 15.0085 35.4812 14.3598 35.4812 13.2132V13.1921C35.4812 12.0575 34.7036 11.3967 33.5326 11.3967V11.3967Z" fill="white"/>
<path d="M74.3344 3.77778C73.1304 1.60827 71.2178 0.525024 68.5936 0.525024H29.8997C27.2784 0.525024 25.3658 1.60827 24.1588 3.77778C23.7715 4.47781 23.4292 5.23216 23.213 5.95935C22.3993 8.69009 22.6725 16.994 22.7896 18.0169C23.0058 19.9299 23.4232 21.4657 24.0447 22.6244C25.2097 24.7939 27.1613 25.8772 29.8997 25.8772H51.6562V33.997L59.5709 25.8772H68.5906C71.3289 25.8772 73.2805 24.7909 74.4455 22.6244C75.0671 21.4657 75.4844 19.9299 75.7006 18.0169C75.8147 16.994 76.0909 8.69311 75.2772 5.95935C75.0611 5.22914 74.7188 4.47781 74.3314 3.77778H74.3344ZM37.4901 13.18C37.4901 15.2288 36.0069 16.7496 33.4637 16.7496H30.7794V9.65264H33.5057C36.0279 9.65264 37.4931 11.1131 37.4931 13.1619V13.183L37.4901 13.18ZM40.5077 16.7496H38.538V9.65264H40.5077V16.7526V16.7496ZM48.4705 15.7961C47.7228 16.4146 46.6839 16.8914 45.4019 16.8914C43.201 16.8914 41.5556 15.3706 41.5556 13.2192V13.1981C41.5556 11.1281 43.171 9.50479 45.3598 9.50479C46.5999 9.50479 47.4796 9.89102 48.2272 10.5398L47.0773 11.9308C46.5728 11.5053 46.0684 11.2609 45.3718 11.2609C44.351 11.2609 43.5643 12.1239 43.5643 13.2071V13.2283C43.5643 14.3749 44.363 15.1956 45.4829 15.1956C45.9573 15.1956 46.3206 15.093 46.6149 14.8999V14.0369H45.2217V12.5976H48.4705V15.793V15.7961ZM55.2923 16.7496H49.5604V9.65264H55.2442V11.3273H51.5V12.4015H54.8899V13.9524H51.5V15.0779H55.2953V16.7526L55.2923 16.7496ZM61.9219 14.5589C61.9219 16.0103 60.7809 16.8703 59.0665 16.8703C57.8144 16.8703 56.6254 16.475 55.7547 15.6935L56.8446 14.3839C57.5412 14.9421 58.3188 15.2348 59.1355 15.2348C59.661 15.2348 59.9432 15.0508 59.9432 14.749V14.7279C59.9432 14.4352 59.712 14.2723 58.7512 14.049C57.2469 13.705 56.0879 13.2765 56.0879 11.8161V11.795C56.0879 10.4764 57.1268 9.52289 58.8233 9.52289C60.0243 9.52289 60.9641 9.84877 61.7297 10.4673L60.7509 11.8584C60.1053 11.4027 59.3998 11.1583 58.7722 11.1583C58.2978 11.1583 58.0666 11.3605 58.0666 11.6139V11.6351C58.0666 11.9609 58.3098 12.1028 59.2887 12.3261C60.913 12.6821 61.9219 13.2071 61.9219 14.5378V14.5589V14.5589ZM68.4705 11.3726H66.3507V16.7496H64.393V11.3726H62.2732V9.64963H68.4705V11.3726Z" fill="white"/>
<path d="M107.723 1.63243C107.026 1.24319 106.276 0.899206 105.552 0.681953C102.832 -0.13576 100.37 0.138823 99.3487 0.253484C97.4451 0.470736 95.9167 0.890154 94.7638 1.51475C94.5746 1.61735 94.3945 1.72899 94.2233 1.84365C94.1122 1.77425 94.0101 1.69882 93.893 1.63243C93.1964 1.24319 92.4488 0.899206 91.7222 0.681953C90.2359 0.235379 88.8337 0.117701 87.6958 0.120718L83.297 2.77603V0.609536H77.6973V3.78383C77.8864 4.22739 78.0456 4.66491 78.1747 5.09037C79.2376 8.65391 78.7722 17.7906 78.7061 18.3609C78.514 20.0657 78.1807 21.5201 77.6973 22.7753V25.8832H83.297V7.99008C83.297 7.2297 83.7144 6.67752 84.5521 6.33655C84.8223 6.22491 85.7982 5.88092 87.2964 5.88092C88.9238 5.88092 89.8216 6.18568 90.2479 6.36672C91.1037 6.72881 91.53 7.26893 91.53 7.99008V25.8802H97.1298V7.93577C97.1508 7.20254 97.5652 6.67148 98.3788 6.33655C98.6491 6.22491 99.6249 5.88092 101.123 5.88092C102.751 5.88092 103.648 6.18568 104.075 6.36672C104.93 6.72881 105.357 7.26893 105.357 7.99008V25.8802H110.957V7.40169C110.957 4.76751 109.879 2.84543 107.72 1.63243H107.723Z" fill="white"/>
<path d="M20.0842 20.2528H7.83677C7.08013 20.2528 6.53066 19.8334 6.19137 18.9915C6.08028 18.7199 5.73799 17.5703 5.73799 13.5511C5.73799 8.99187 6.04124 7.87241 6.2214 7.44394C6.5817 6.58399 7.11916 6.15552 7.83677 6.15552H20.0752C20.1472 5.76326 20.2283 5.40419 20.3214 5.09038C20.5886 4.19723 20.9909 3.25882 21.5224 2.3023C21.8887 1.64451 22.3061 1.0531 22.7715 0.528076H7.24827C4.62704 0.528076 2.71442 1.61132 1.51039 3.78083C1.12306 4.48086 0.780772 5.23521 0.564588 5.9624C-0.252106 8.69616 0.0241284 16.997 0.138225 18.0199C0.354409 19.9329 0.771764 21.4688 1.39329 22.6275C2.55828 24.797 4.50994 25.8802 7.24827 25.8802H22.6424C22.1199 25.2858 21.7056 24.6612 21.3873 24.0668C20.8078 22.9835 20.3784 21.7253 20.0842 20.2528V20.2528Z" fill="white"/>
</svg>
