<svg width="71" height="71" viewBox="0 0 71 71" fill="none" xmlns="http://www.w3.org/2000/svg">
<path d="M50.1816 43.417L44.3872 40.0705C44.1007 39.9012 43.7361 40.1096 43.7361 40.4481V41.0796C43.7361 41.3205 43.5408 41.5159 43.2999 41.5159H32.2969C32.0234 41.5159 31.7565 41.4377 31.5351 41.2815L27.4985 38.5665L24.1064 41.7828L29.6796 45.5394C30.2069 45.891 30.8254 46.0798 31.457 46.0798H43.2999C43.5408 46.0798 43.7361 46.2752 43.7361 46.516V47.1476C43.7361 47.4796 44.0942 47.688 44.3872 47.5252L50.1816 44.1787C50.4681 44.0094 50.4681 43.5928 50.1816 43.43V43.417Z" fill="#1D1D1B"/>
<path d="M47.0628 25.3304L41.2683 21.9839C40.9818 21.8146 40.6172 22.023 40.6172 22.3615V22.993C40.6172 23.2339 40.4219 23.4293 40.181 23.4293H36.7499C35.936 23.4293 35.1548 23.7418 34.5623 24.3017L31.2549 27.4333L35.1352 30.0441L36.9061 28.3643C37.1601 28.1234 37.4986 27.9867 37.8502 27.9867H40.181C40.4219 27.9867 40.6172 28.182 40.6172 28.4229V29.0545C40.6172 29.3865 40.9753 29.5949 41.2683 29.4321L47.0628 26.0856C47.3492 25.9163 47.3492 25.4996 47.0628 25.3369V25.3304Z" fill="#1D1D1B"/>
<path d="M59.3029 49.817L59.2899 49.8039C58.6258 49.3547 57.7143 49.4068 57.2325 50.1295C56.7507 50.8391 57.0437 51.692 57.7013 52.1348L57.7143 52.1478C58.3784 52.597 59.2899 52.5449 59.7717 51.8223C60.2535 51.1126 59.9605 50.2597 59.3029 49.817Z" fill="#1D1D1B"/>
<path d="M13.1361 49.2375L12.0293 49.9667L12.5632 50.7806C12.8627 51.2298 13.2403 51.373 13.5919 51.1452L13.6049 51.1322C13.9695 50.8913 13.9565 50.4941 13.67 50.0579L13.1296 49.2375H13.1361Z" fill="#1D1D1B"/>
<path d="M35.5 1C16.4433 1 1 16.4433 1 35.5C1 54.5567 16.4433 70 35.5 70C54.5567 70 70 54.5567 70 35.5C70 16.4433 54.5502 1 35.5 1ZM10.2582 28.8721C10.2582 29.8748 9.44433 30.6886 8.44169 30.6886C7.43905 30.6886 6.62521 29.8748 6.62521 28.8721C6.62521 27.8695 7.43905 27.0557 8.44169 27.0557C9.44433 27.0557 10.2582 27.8695 10.2582 28.8721V28.8721ZM64.3683 28.8721C64.3683 29.8748 63.5544 30.6886 62.5518 30.6886C61.5492 30.6886 60.7353 29.8748 60.7353 28.8721C60.7353 27.8695 61.5492 27.0557 62.5518 27.0557C63.5544 27.0557 64.3683 27.8695 64.3683 28.8721ZM18.3704 32.4139C17.8431 32.0624 17.2246 31.8736 16.593 31.8736H14.132C14.3794 30.4282 14.7635 29.0284 15.2779 27.6937H21.3784C21.6518 27.6937 21.9188 27.7718 22.1401 27.9281L35.2982 36.7956C35.8255 37.1472 36.444 37.336 37.0756 37.336H49.5175C49.7583 37.336 49.9537 37.5313 49.9537 37.7722V38.4038C49.9537 38.7358 50.3118 38.9441 50.6047 38.7814L56.3992 35.4349C56.6857 35.2656 56.6857 34.8489 56.3992 34.6862L50.6047 31.3397C50.3183 31.1704 49.9537 31.3788 49.9537 31.7173V32.3488C49.9537 32.5897 49.7583 32.7851 49.5175 32.7851H37.9155C37.642 32.7851 37.3751 32.7069 37.1537 32.5507L23.9957 23.6831C23.4683 23.3316 22.8498 23.1428 22.2182 23.1428H17.7064C21.6193 17.5241 28.1299 13.852 35.4935 13.852C47.4601 13.852 57.161 23.5529 57.161 35.5195C57.161 47.4861 47.4601 57.187 35.4935 57.187C27.7393 57.187 20.9422 53.1179 17.1139 46.9978C17.3353 46.8741 17.5501 46.7179 17.7389 46.5421L30.3501 34.595L26.4697 31.9842L15.3951 42.4794C15.2909 42.5771 15.1737 42.6552 15.05 42.7203C14.3599 40.7476 13.9432 38.6512 13.8455 36.4636H15.7467C16.0201 36.4636 16.287 36.5417 16.5084 36.698L18.6309 38.1303L22.0229 34.914L18.3574 32.4465L18.3704 32.4139ZM7.04841 42.4143L5.27751 42.8831L4.69806 40.6955L11.2348 38.9637L12.016 41.9065C12.4783 43.6448 12.016 45.0316 10.4665 45.4418H10.447C8.87139 45.865 7.71249 44.8819 7.24373 43.1175L7.05492 42.4078L7.04841 42.4143ZM14.9654 52.9421C14.145 53.4824 13.2856 53.4369 12.5043 52.9681L11.4496 55.5463L10.0303 53.3913L10.9418 51.2623L10.6748 50.8587L9.0602 51.9199L7.81666 50.0318L13.4614 46.3142L15.2779 49.0747C15.9355 50.0774 16.1047 50.8782 15.9745 51.5293C15.8573 52.0892 15.5578 52.5449 14.9784 52.929L14.9654 52.9421V52.9421ZM21.8276 59.8889L21.8146 59.902C20.6362 61.471 18.4095 61.751 16.7363 60.5009C15.0695 59.2509 14.7245 57.0568 15.9029 55.4877L15.9159 55.4747C17.0944 53.9056 19.321 53.6257 20.9942 54.8757C22.661 56.1258 23.006 58.3199 21.8276 59.8889ZM27.264 63.5479C27.876 63.7367 28.3187 63.5024 28.7289 63.1052L30.2068 64.6547C29.367 65.449 28.2276 65.9569 26.6195 65.4686C24.829 64.9217 23.6766 63.0987 24.2886 61.0934V61.0739C24.8811 59.1402 26.8278 58.1571 28.7615 58.7496C30.1873 59.1858 30.936 60.1689 31.1769 61.3213L29.074 61.8226C28.9763 61.2887 28.7289 60.859 28.1364 60.6767C27.4072 60.4554 26.7301 60.9437 26.4958 61.7249V61.7445C26.2353 62.5844 26.5544 63.3266 27.264 63.5479V63.5479ZM33.4557 66.6665L33.2864 59.9085L39.0483 59.7652L39.0939 61.6208L35.5521 61.7119L35.5716 62.3955L38.8725 62.3109L38.9116 63.9451L35.6107 64.0297L35.6302 64.7654L39.2241 64.6743L39.2697 66.5298L33.4557 66.6731V66.6665ZM45.852 64.9738C44.5563 65.423 43.2607 65.4686 42.1995 65.0389L42.8636 63.281C43.7425 63.5675 44.6084 63.5089 45.3571 63.2484C45.7413 63.1117 45.8715 62.9555 45.8064 62.7862V62.7667C45.7348 62.5844 45.5004 62.5518 44.7712 62.656C43.2347 62.8643 41.8349 62.8904 41.3661 61.5426V61.5231C40.9364 60.3121 41.5614 59.0426 43.3193 58.424C44.5498 57.9943 45.5655 57.9683 46.5095 58.2938L45.9691 60.0973C45.2139 59.8694 44.4261 59.928 43.8336 60.1363C43.5146 60.247 43.4039 60.4098 43.4625 60.566V60.5856C43.5276 60.7614 43.7425 60.8069 44.4587 60.7028C46.197 60.4358 47.4536 60.527 47.9028 61.8161V61.8356C48.3781 63.1768 47.5577 64.3813 45.8454 64.9803L45.852 64.9738ZM54.2572 60.4684C53.1569 61.2887 51.9394 61.7249 50.8001 61.6338L50.9042 59.7587C51.8287 59.7652 52.6361 59.4462 53.2741 58.9775C53.5996 58.7366 53.6713 58.5477 53.5671 58.398L53.5541 58.385C53.4369 58.2287 53.2025 58.2743 52.5384 58.5933C51.1386 59.2574 49.8104 59.7066 48.9575 58.5608L48.9445 58.5477C48.1763 57.5191 48.3846 56.1193 49.8755 55.0059C50.9172 54.2247 51.8743 53.8926 52.877 53.9187L52.9095 55.8002C52.1217 55.8133 51.3925 56.1062 50.8847 56.4839C50.6112 56.6857 50.5592 56.8745 50.6568 57.0047L50.6698 57.0177C50.7805 57.1675 50.9954 57.148 51.6464 56.8289C53.222 56.0477 54.4525 55.7547 55.2664 56.8485L55.2794 56.8615C56.1323 58.0009 55.7156 59.3941 54.2637 60.4814L54.2572 60.4684ZM61.4124 52.9616C60.247 54.6934 58.0725 55.1492 56.4513 54.0554L56.4383 54.0424C54.8106 52.9486 54.42 50.735 55.5854 49.0031C56.7508 47.2713 58.9254 46.8155 60.5465 47.9093L60.5595 47.9223C62.1872 49.0161 62.5778 51.2298 61.4124 52.9616ZM63.7367 46.4314L62.6495 44.9014C63.3787 44.335 63.8149 43.5797 64.0167 42.8115C64.1209 42.4208 64.0623 42.2255 63.8865 42.1799H63.867C63.6781 42.1279 63.5219 42.3036 63.1964 42.9677C62.5127 44.3545 61.751 45.5329 60.3707 45.1748H60.3512C59.1077 44.8428 58.4045 43.6188 58.8733 41.8153C59.2053 40.5523 59.7457 39.6994 60.5465 39.1004L61.7445 40.5523C61.1325 41.0536 60.7418 41.7372 60.5856 42.3427C60.5009 42.6682 60.5726 42.8505 60.7288 42.8896H60.7483C60.9241 42.9417 61.0869 42.7919 61.3994 42.1344C62.1481 40.5458 62.9294 39.5496 64.2446 39.8947H64.2641C65.6379 40.2593 66.1848 41.6135 65.7225 43.3649C65.3774 44.6931 64.6873 45.7868 63.7433 46.4314H63.7367ZM10.1084 16.6191L12.0811 14.5161C14.1255 12.3351 16.2219 12.2504 17.8496 13.7739L17.8626 13.7869C19.4838 15.3104 19.5945 17.5045 17.511 19.7247L15.5969 21.7625L10.1084 16.6126V16.6191ZM16.0071 18.1296C16.7949 17.2897 16.9576 16.4238 16.1633 15.6815L16.1503 15.6685C15.356 14.9263 14.5031 15.1412 13.7153 15.981L13.4289 16.287L15.7206 18.4356L16.0071 18.1296ZM19.028 8.68909L21.2221 7.45858L24.9072 14.0278L22.7131 15.2584L19.028 8.68909ZM26.2093 9.17739V9.15786C25.7535 6.95726 27.1533 4.95197 29.4841 4.47669C30.7472 4.21627 31.8605 4.43112 32.7981 4.96499L31.7564 6.91168C31.1899 6.59917 30.604 6.47547 29.992 6.60568C29.0349 6.801 28.488 7.67994 28.6964 8.68258V8.70211C28.9112 9.74382 29.7901 10.3102 30.8188 10.1019C31.242 10.0173 31.4569 9.90659 31.6262 9.76335L31.4764 9.02765L30.2133 9.28807L29.8878 7.70598L33.4622 6.97679L34.1588 10.3949C33.4947 11.2152 32.466 11.8923 31.1313 12.1658C28.8331 12.6346 26.6715 11.4757 26.2028 9.19041L26.2093 9.17739ZM37.948 4.00142L44.2699 5.12776L43.9053 7.15909L40.0184 6.46896L39.8817 7.21768L43.5016 7.86224L43.1826 9.65267L39.5627 9.00811L39.4194 9.81544L43.3584 10.5186L42.9938 12.5499L36.6198 11.4105L37.9415 3.9949L37.948 4.00142ZM45.1228 12.0746L47.102 11.391C47.4796 12.3481 48.1502 13.0512 48.912 13.5005C49.3026 13.7349 49.524 13.7283 49.6346 13.5526L49.6477 13.533C49.7584 13.3507 49.6151 13.1229 49.0096 12.5694C47.74 11.404 46.7114 10.2256 47.5317 8.86488L47.5447 8.84535C48.2804 7.62134 49.8104 7.24372 51.5878 8.31147C52.8314 9.0602 53.5801 9.90659 53.9707 10.9418L52.0436 11.7686C51.6985 10.9613 51.0865 10.3298 50.4875 9.97169C50.162 9.77637 49.9537 9.80242 49.856 9.95867L49.843 9.9782C49.7388 10.154 49.843 10.3688 50.455 10.9092C51.9264 12.2049 52.7467 13.3442 51.9655 14.6463L51.9524 14.6659C51.1386 16.0201 49.524 16.1829 47.7921 15.1412C46.4835 14.3534 45.5199 13.2791 45.1293 12.0681L45.1228 12.0746ZM57.506 16.1047L56.1128 14.3794L57.7665 13.0382L62.1351 18.4421L60.4814 19.7833L59.0881 18.0579L54.8888 21.4565L53.3067 19.4968L57.506 16.0982V16.1047Z" fill="#1D1D1B"/>
<path d="M9.73067 43.3259H9.75021C10.2255 43.1957 10.3752 42.7855 10.2255 42.206L10.0692 41.6071L8.61084 41.9912L8.7671 42.5771C8.91684 43.1371 9.26842 43.4431 9.73067 43.3194V43.3259Z" fill="#1D1D1B"/>
<path d="M19.7834 56.4513C19.0932 55.9369 18.2338 56.1843 17.7586 56.8159L17.7455 56.8289C17.2638 57.4669 17.2703 58.3784 17.9669 58.8993C18.657 59.4136 19.5164 59.1662 19.9917 58.5347L20.0047 58.5217C20.4865 57.8836 20.48 56.9721 19.7834 56.4513Z" fill="#1D1D1B"/>
</svg>
