<svg width="71" height="71" viewBox="0 0 71 71" fill="none" xmlns="http://www.w3.org/2000/svg">
<path d="M63.4301 20.208H60.4541C59.7501 16.688 59.0141 14 58.2461 12.144C57.4781 10.288 56.2301 9.008 54.5021 8.304C52.7741 7.6 50.1181 7.248 46.5341 7.248H40.4861V53.424C40.4861 56.304 40.7101 58.448 41.1581 59.856C41.6061 61.2 42.5021 62.096 43.8461 62.544C45.1901 62.928 47.2381 63.12 49.9901 63.12V66H22.1501V63.12C24.8381 63.12 26.8541 62.928 28.1981 62.544C29.5421 62.096 30.4381 61.2 30.8861 59.856C31.3341 58.448 31.5581 56.304 31.5581 53.424V7.248H25.4141C21.8941 7.248 19.2381 7.6 17.4461 8.304C15.7181 9.008 14.4701 10.288 13.7021 12.144C12.9341 14 12.1981 16.688 11.4941 20.208H8.51813L9.57413 2.928H62.6621L63.4301 20.208Z" fill="black"/>
</svg>
